Coordinates
version=1
nRows=15
nColumns=34
inDegrees=no

Units are S.I. units (second, meters, Newtons, ...)
If the header above contains a line with 'inDegrees', this indicates whether rotational values are in degrees (yes) or radians (no).

endheader
time	pelvis_tilt	pelvis_list	pelvis_rotation	pelvis_tx	pelvis_ty	pelvis_tz	hip_flexion_r	hip_adduction_r	hip_rotation_r	knee_angle_r	ankle_angle_r	subtalar_angle_r	mtp_angle_r	hip_flexion_l	hip_adduction_l	hip_rotation_l	knee_angle_l	ankle_angle_l	subtalar_angle_l	mtp_angle_l	lumbar_extension	lumbar_bending	lumbar_rotation	arm_flex_r	arm_add_r	arm_rot_r	elbow_flex_r	pro_sup_r	arm_flex_l	arm_add_l	arm_rot_l	elbow_flex_l	pro_sup_l
0.01	0.118274	0.0130904	0.0111548	-0.147066	0.850823	-0.294666	0.343793	-0.0409376	-0.0968169	-0.0226795	0.179794	0.161334	0.00628897	-0.404717	0.0100053	-0.352522	0.154114	0.544475	0.542109	0.0062359	-0.364604	0.0386611	-0.172722	-0.197142	-0.230842	-0.202638	0.65288	2.09213	0.256426	-0.320563	0.0063114	0.992173	2.13773
0.02	0.12194	0.0109111	0.0155964	-0.130586	0.85909	-0.293197	0.336252	-0.0390045	-0.0939959	-0.00390332	0.174986	0.130508	0.00628834	-0.426193	0.00603596	-0.333065	0.152807	0.535416	0.517713	0.00623531	-0.366064	0.0437861	-0.176782	-0.203173	-0.231861	-0.208207	0.654985	2.09546	0.251847	-0.317713	0.00588991	0.996396	2.13916
0.03	0.125005	0.00663123	0.0193471	-0.114109	0.866429	-0.29163	0.329351	-0.0344521	-0.0930864	0.0154114	0.166437	0.103867	0.00628771	-0.445329	-0.000831666	-0.317263	0.154964	0.523674	0.495425	0.00623473	-0.366693	0.0508667	-0.17945	-0.208474	-0.232928	-0.212807	0.656687	2.09805	0.245749	-0.314319	0.00503628	0.999452	2.1405
0.04	0.127467	0.000249401	0.0224095	-0.0976403	0.872885	-0.289958	0.323077	-0.0272971	-0.0940086	0.0351878	0.154207	0.0813139	0.00628708	-0.462107	-0.0105845	-0.305076	0.160609	0.509202	0.475208	0.00623414	-0.366502	0.0598907	-0.180727	-0.213036	-0.234041	-0.216438	0.65798	2.09987	0.238153	-0.310377	0.00375821	1.00133	2.14172
0.05	0.12932	-0.00819711	0.0247871	-0.0811904	0.878512	-0.288176	0.317423	-0.0176038	-0.0965408	0.0553037	0.138539	0.062542	0.00628645	-0.476447	-0.0231696	-0.296328	0.169834	0.491843	0.456852	0.00623355	-0.365517	0.0708173	-0.180617	-0.216829	-0.235192	-0.219107	0.658851	2.10095	0.229115	-0.305882	0.00207721	1.00197	2.1428
0.06	0.130542	-0.0186065	0.0264813	-0.0647829	0.883369	-0.286286	0.312438	-0.00552806	-0.100345	0.0756986	0.120001	0.0470572	0.00628582	-0.488156	-0.0384621	-0.290653	0.182863	0.471303	0.439877	0.00623297	-0.363778	0.0835429	-0.179135	-0.219795	-0.236365	-0.220833	0.659282	2.1013	0.21875	-0.300829	2.91496e-05	1.0013	2.1437
0.07	0.131083	-0.0307876	0.0274905	-0.0484529	0.887525	-0.28429	0.30826	0.00864895	-0.10503	0.0964593	0.0995837	0.0342645	0.00628519	-0.49688	-0.0562403	-0.287476	0.200098	0.447148	0.423475	0.00623238	-0.361327	0.0978721	-0.176314	-0.221851	-0.237531	-0.221667	0.659265	2.10099	0.207231	-0.295215	-0.0023394	0.99922	2.14434
0.08	0.130857	-0.0444482	0.0278091	-0.0322477	0.891051	-0.282198	0.305108	0.0245169	-0.110205	0.117824	0.0786694	0.0235715	0.00628457	-0.502093	-0.0761773	-0.286042	0.222115	0.418842	0.406519	0.00623179	-0.3582	0.113504	-0.17222	-0.222892	-0.238646	-0.221701	0.65882	2.10018	0.194783	-0.289053	-0.00497651	0.995623	2.14465
0.09	0.129748	-0.0592061	0.0274318	-0.0162225	0.894022	-0.280022	0.30323	0.0415687	-0.115507	0.140087	0.0588815	0.0144612	0.00628394	-0.503126	-0.0978556	-0.28549	0.24962	0.385817	0.387643	0.00623121	-0.354422	0.130041	-0.166944	-0.222813	-0.239653	-0.221078	0.65802	2.09906	0.181666	-0.28237	-0.00782903	0.990426	2.14459
0.1	0.127624	-0.074621	0.02636	-0.000434808	0.896511	-0.277775	0.302823	0.0592625	-0.120596	0.163443	0.0418381	0.00652605	0.00628331	-0.499234	-0.120803	-0.28496	0.283338	0.347587	0.365399	0.00623062	-0.35	0.147024	-0.160608	-0.221523	-0.240485	-0.219987	0.657002	2.0979	0.168162	-0.275215	-0.0108436	0.983575	2.14415
0.11	0.124358	-0.0902399	0.024613	0.0150596	0.898592	-0.275474	0.303948	0.0770964	-0.125155	0.187824	0.0288825	-0.000537271	0.00628268	-0.489696	-0.144541	-0.283706	0.323883	0.303876	0.338445	0.00623003	-0.344936	0.163976	-0.153352	-0.218965	-0.241076	-0.218642	0.655974	2.09693	0.154554	-0.267663	-0.0139629	0.975062	2.1434
0.12	0.119857	-0.105645	0.0222412	0.0302135	0.900334	-0.273134	0.306471	0.0946705	-0.128888	0.212801	0.0208637	-0.00695843	0.00628205	-0.473922	-0.168629	-0.281178	0.371609	0.254767	0.305736	0.00622945	-0.339232	0.180457	-0.145332	-0.215126	-0.24137	-0.217248	0.655198	2.09637	0.141118	-0.259815	-0.017118	0.964917	2.14246
0.13	0.114088	-0.120488	0.0193385	0.0449895	0.9018	-0.270776	0.310049	0.11172	-0.131536	0.237581	0.0180236	-0.0129283	0.00628142	-0.451555	-0.192684	-0.277057	0.426482	0.200849	0.266675	0.00622886	-0.332907	0.196101	-0.136711	-0.210043	-0.241334	-0.21596	0.65497	2.09632	0.128113	-0.251794	-0.0202202	0.953209	2.14149
0.14	0.107104	-0.134508	0.016053	0.0593644	0.903049	-0.268418	0.314155	0.128102	-0.13291	0.261118	0.020015	-0.0186166	0.00628079	-0.422545	-0.216381	-0.27122	0.487998	0.143316	0.22119	0.00622827	-0.326017	0.210634	-0.127666	-0.203792	-0.240963	-0.214838	0.655574	2.09679	0.115779	-0.243746	-0.0231552	0.940032	2.14067
0.15	0.0990576	-0.147516	0.0125912	0.0733285	0.904135	-0.266084	0.318148	0.143752	-0.132937	0.28228	0.0260345	-0.0241583	0.00628017	-0.387176	-0.239414	-0.263666	0.555175	0.0839965	0.169751	0.00622769	-0.318668	0.223871	-0.118389	-0.196471	-0.240288	-0.213813	0.657245	2.09763	0.104332	-0.235831	-0.0257851	0.925502	2.14014
